<svg id="visual" viewBox="0 0 960 300" width="960" height="300" xmlns="http://www.w3.org/2000/svg" xmlns:xlink="http://www.w3.org/1999/xlink" version="1.1"><rect x="0" y="0" width="960" height="300" fill="#272A2B"></rect><path d="M0 243L22.8 241.2C45.7 239.3 91.3 235.7 137 235.7C182.7 235.7 228.3 239.3 274 241.5C319.7 243.7 365.3 244.3 411.2 241.8C457 239.3 503 233.7 548.8 234.3C594.7 235 640.3 242 686 243.8C731.7 245.7 777.3 242.3 823 238C868.7 233.7 914.3 228.3 937.2 225.7L960 223L960 301L937.2 301C914.3 301 868.7 301 823 301C777.3 301 731.7 301 686 301C640.3 301 594.7 301 548.8 301C503 301 457 301 411.2 301C365.3 301 319.7 301 274 301C228.3 301 182.7 301 137 301C91.3 301 45.7 301 22.8 301L0 301Z" fill="#69978d"></path><path d="M0 242L22.8 243C45.7 244 91.3 246 137 248.2C182.7 250.3 228.3 252.7 274 253.3C319.7 254 365.3 253 411.2 249.8C457 246.7 503 241.3 548.8 240.2C594.7 239 640.3 242 686 241.5C731.7 241 777.3 237 823 238.5C868.7 240 914.3 247 937.2 250.5L960 254L960 301L937.2 301C914.3 301 868.7 301 823 301C777.3 301 731.7 301 686 301C640.3 301 594.7 301 548.8 301C503 301 457 301 411.2 301C365.3 301 319.7 301 274 301C228.3 301 182.7 301 137 301C91.3 301 45.7 301 22.8 301L0 301Z" fill="#69a298"></path><path d="M0 254L22.8 254.8C45.7 255.7 91.3 257.3 137 256.7C182.7 256 228.3 253 274 252.8C319.7 252.7 365.3 255.3 411.2 255.5C457 255.7 503 253.3 548.8 251.8C594.7 250.3 640.3 249.7 686 250.3C731.7 251 777.3 253 823 252.3C868.7 251.7 914.3 248.3 937.2 246.7L960 245L960 301L937.2 301C914.3 301 868.7 301 823 301C777.3 301 731.7 301 686 301C640.3 301 594.7 301 548.8 301C503 301 457 301 411.2 301C365.3 301 319.7 301 274 301C228.3 301 182.7 301 137 301C91.3 301 45.7 301 22.8 301L0 301Z" fill="#67ada4"></path><path d="M0 246L22.8 246.3C45.7 246.7 91.3 247.3 137 249.3C182.7 251.3 228.3 254.7 274 255.7C319.7 256.7 365.3 255.3 411.2 254.7C457 254 503 254 548.8 254.7C594.7 255.3 640.3 256.7 686 256.2C731.7 255.7 777.3 253.3 823 253.7C868.7 254 914.3 257 937.2 258.5L960 260L960 301L937.2 301C914.3 301 868.7 301 823 301C777.3 301 731.7 301 686 301C640.3 301 594.7 301 548.8 301C503 301 457 301 411.2 301C365.3 301 319.7 301 274 301C228.3 301 182.7 301 137 301C91.3 301 45.7 301 22.8 301L0 301Z" fill="#65b9b1"></path><path d="M0 267L22.8 267C45.7 267 91.3 267 137 266.5C182.7 266 228.3 265 274 264C319.7 263 365.3 262 411.2 260.7C457 259.3 503 257.7 548.8 258.8C594.7 260 640.3 264 686 266.3C731.7 268.7 777.3 269.3 823 269.3C868.7 269.3 914.3 268.7 937.2 268.3L960 268L960 301L937.2 301C914.3 301 868.7 301 823 301C777.3 301 731.7 301 686 301C640.3 301 594.7 301 548.8 301C503 301 457 301 411.2 301C365.3 301 319.7 301 274 301C228.3 301 182.7 301 137 301C91.3 301 45.7 301 22.8 301L0 301Z" fill="#61c4be"></path><path d="M0 272L22.8 271.8C45.7 271.7 91.3 271.3 137 270.2C182.7 269 228.3 267 274 267.5C319.7 268 365.3 271 411.2 273C457 275 503 276 548.8 275.2C594.7 274.3 640.3 271.7 686 270.2C731.7 268.7 777.3 268.3 823 267.8C868.7 267.3 914.3 266.7 937.2 266.3L960 266L960 301L937.2 301C914.3 301 868.7 301 823 301C777.3 301 731.7 301 686 301C640.3 301 594.7 301 548.8 301C503 301 457 301 411.2 301C365.3 301 319.7 301 274 301C228.3 301 182.7 301 137 301C91.3 301 45.7 301 22.8 301L0 301Z" fill="#5cd0cc"></path><path d="M0 281L22.8 279.3C45.7 277.7 91.3 274.3 137 272.5C182.7 270.7 228.3 270.3 274 272C319.7 273.7 365.3 277.3 411.2 278C457 278.7 503 276.3 548.8 276.3C594.7 276.3 640.3 278.7 686 278.3C731.7 278 777.3 275 823 273.5C868.7 272 914.3 272 937.2 272L960 272L960 301L937.2 301C914.3 301 868.7 301 823 301C777.3 301 731.7 301 686 301C640.3 301 594.7 301 548.8 301C503 301 457 301 411.2 301C365.3 301 319.7 301 274 301C228.3 301 182.7 301 137 301C91.3 301 45.7 301 22.8 301L0 301Z" fill="#55dbdb"></path><path d="M0 286L22.8 285.3C45.7 284.7 91.3 283.3 137 282.3C182.7 281.3 228.3 280.7 274 280.5C319.7 280.3 365.3 280.7 411.2 280.7C457 280.7 503 280.3 548.8 281.3C594.7 282.3 640.3 284.7 686 285.7C731.7 286.7 777.3 286.3 823 284.8C868.7 283.3 914.3 280.7 937.2 279.3L960 278L960 301L937.2 301C914.3 301 868.7 301 823 301C777.3 301 731.7 301 686 301C640.3 301 594.7 301 548.8 301C503 301 457 301 411.2 301C365.3 301 319.7 301 274 301C228.3 301 182.7 301 137 301C91.3 301 45.7 301 22.8 301L0 301Z" fill="#4be7eb"></path><path d="M0 293L22.8 292C45.7 291 91.3 289 137 288.3C182.7 287.7 228.3 288.3 274 288.8C319.7 289.3 365.3 289.7 411.2 290.2C457 290.7 503 291.3 548.8 291C594.7 290.7 640.3 289.3 686 288.3C731.7 287.3 777.3 286.7 823 287.3C868.7 288 914.3 290 937.2 291L960 292L960 301L937.2 301C914.3 301 868.7 301 823 301C777.3 301 731.7 301 686 301C640.3 301 594.7 301 548.8 301C503 301 457 301 411.2 301C365.3 301 319.7 301 274 301C228.3 301 182.7 301 137 301C91.3 301 45.7 301 22.8 301L0 301Z" fill="#3cf3fb"></path></svg>