<svg id="visual" viewBox="0 0 960 300" width="960" height="300" xmlns="http://www.w3.org/2000/svg" xmlns:xlink="http://www.w3.org/1999/xlink" version="1.1"><rect x="0" y="0" width="960" height="300" fill="#262A2B"></rect><path d="M0 213L20 211.8C40 210.7 80 208.3 120 214.3C160 220.3 200 234.7 240 236.3C280 238 320 227 360 218C400 209 440 202 480 197.8C520 193.7 560 192.3 600 200C640 207.7 680 224.3 720 229.2C760 234 800 227 840 218.7C880 210.3 920 200.7 940 195.8L960 191L960 301L940 301C920 301 880 301 840 301C800 301 760 301 720 301C680 301 640 301 600 301C560 301 520 301 480 301C440 301 400 301 360 301C320 301 280 301 240 301C200 301 160 301 120 301C80 301 40 301 20 301L0 301Z" fill="#E0E0E0" stroke-linecap="round" stroke-linejoin="miter"></path></svg>