<svg id="visual" viewBox="0 0 960 300" width="960" height="300" xmlns="http://www.w3.org/2000/svg" xmlns:xlink="http://www.w3.org/1999/xlink" version="1.1"><rect x="0" y="0" width="960" height="300" fill="#272A2B"></rect><path d="M0 201L22.8 198.2C45.7 195.3 91.3 189.7 137 187.7C182.7 185.7 228.3 187.3 274 191C319.7 194.7 365.3 200.3 411.2 204.8C457 209.3 503 212.7 548.8 208C594.7 203.3 640.3 190.7 686 190C731.7 189.3 777.3 200.7 823 202.5C868.7 204.3 914.3 196.7 937.2 192.8L960 189L960 301L937.2 301C914.3 301 868.7 301 823 301C777.3 301 731.7 301 686 301C640.3 301 594.7 301 548.8 301C503 301 457 301 411.2 301C365.3 301 319.7 301 274 301C228.3 301 182.7 301 137 301C91.3 301 45.7 301 22.8 301L0 301Z" fill="#bab9b1"></path><path d="M0 207L22.8 206.8C45.7 206.7 91.3 206.3 137 210.5C182.7 214.7 228.3 223.3 274 222.3C319.7 221.3 365.3 210.7 411.2 206.3C457 202 503 204 548.8 205C594.7 206 640.3 206 686 205C731.7 204 777.3 202 823 205.5C868.7 209 914.3 218 937.2 222.5L960 227L960 301L937.2 301C914.3 301 868.7 301 823 301C777.3 301 731.7 301 686 301C640.3 301 594.7 301 548.8 301C503 301 457 301 411.2 301C365.3 301 319.7 301 274 301C228.3 301 182.7 301 137 301C91.3 301 45.7 301 22.8 301L0 301Z" fill="#c8c4a3"></path><path d="M0 246L22.8 244C45.7 242 91.3 238 137 239C182.7 240 228.3 246 274 248.5C319.7 251 365.3 250 411.2 247C457 244 503 239 548.8 239.7C594.7 240.3 640.3 246.7 686 248.2C731.7 249.7 777.3 246.3 823 240.8C868.7 235.3 914.3 227.7 937.2 223.8L960 220L960 301L937.2 301C914.3 301 868.7 301 823 301C777.3 301 731.7 301 686 301C640.3 301 594.7 301 548.8 301C503 301 457 301 411.2 301C365.3 301 319.7 301 274 301C228.3 301 182.7 301 137 301C91.3 301 45.7 301 22.8 301L0 301Z" fill="#d5d094"></path><path d="M0 258L22.8 258.7C45.7 259.3 91.3 260.7 137 260.7C182.7 260.7 228.3 259.3 274 256.7C319.7 254 365.3 250 411.2 248.5C457 247 503 248 548.8 250.5C594.7 253 640.3 257 686 258.3C731.7 259.7 777.3 258.3 823 257.3C868.7 256.3 914.3 255.7 937.2 255.3L960 255L960 301L937.2 301C914.3 301 868.7 301 823 301C777.3 301 731.7 301 686 301C640.3 301 594.7 301 548.8 301C503 301 457 301 411.2 301C365.3 301 319.7 301 274 301C228.3 301 182.7 301 137 301C91.3 301 45.7 301 22.8 301L0 301Z" fill="#e1dc84"></path><path d="M0 282L22.8 280.8C45.7 279.7 91.3 277.3 137 274C182.7 270.7 228.3 266.3 274 267.8C319.7 269.3 365.3 276.7 411.2 279C457 281.3 503 278.7 548.8 278.5C594.7 278.3 640.3 280.7 686 281.5C731.7 282.3 777.3 281.7 823 279.2C868.7 276.7 914.3 272.3 937.2 270.2L960 268L960 301L937.2 301C914.3 301 868.7 301 823 301C777.3 301 731.7 301 686 301C640.3 301 594.7 301 548.8 301C503 301 457 301 411.2 301C365.3 301 319.7 301 274 301C228.3 301 182.7 301 137 301C91.3 301 45.7 301 22.8 301L0 301Z" fill="#ede872"></path></svg>